# xmcd
#
# Track frame offsets: 
#        150
#        20748
#        35151
#        48200
#        65586
#        80373
#        96584
#        112911
#        133512
#        150219
#        168089
#
# Disc length: 2503 seconds
#
# Revision: 0
# Processed by: cddbd v1.5.2PL0 Copyright (c) Steve Scherf et al.
# Submitted via: ExactAudioCopy v0.95b4
#
DISCID=8509c50b
DTITLE=Tim Murphy - Ain't No Shame
DYEAR=2006
DGENRE=Country
TTITLE0=Money Ain't Everything
TTITLE1=Burn Me Down
TTITLE2=All The Silence I Can Stand
TTITLE3=Over You
TTITLE4=Wild Wild West
TTITLE5=Bottom Of The Fifth
TTITLE6=American Heroes
TTITLE7=Time To Do Nothin'
TTITLE8=I Don't Know Where She Is
TTITLE9=Walk On By
TTITLE10=Ain't No Shame
EXTD=
EXTT0=
EXTT1=
EXTT2=
EXTT3=
EXTT4=
EXTT5=
EXTT6=
EXTT7=
EXTT8=
EXTT9=
EXTT10=
PLAYORDER=
